<svg width="149" height="135" viewBox="0 0 149 135" fill="none" xmlns="http://www.w3.org/2000/svg">
<g id="Group 2">
<path id="Vector" d="M131.133 92.3041C131.091 92.1357 131.048 91.9674 130.985 91.799C130.649 90.7888 130.08 89.8629 129.365 89.0421C125.45 84.4963 116.969 82.5391 116.969 82.5391C108.572 81.5711 107.815 75.047 107.815 75.047C111.834 71.8271 113.497 67.2814 113.497 67.2814C119.495 64.798 117.895 56.1485 117.895 56.1485C116.99 55.1804 115.222 45.7732 115.222 45.7732C106.867 29.2527 91.736 36.2397 89.1474 37.5866C89.0633 37.6287 88.9791 37.6708 88.937 37.7129C88.8318 37.776 88.7686 37.8181 88.7686 37.8181C86.9587 40.5961 86.0538 44.1106 85.7171 47.8566C85.8223 47.8987 85.9275 47.9408 86.0117 47.9829C86.6431 48.2775 87.1271 48.6774 87.1902 49.1615V54.0439C87.6111 52.2551 88.3688 50.9713 89.8419 50.9082C89.8419 50.9082 89.8419 50.9082 89.863 50.9292C89.9472 50.9292 90.0524 50.9082 90.1576 50.9082C90.1576 50.9082 93.6301 53.7703 91.2941 60.1681C91.2941 60.1681 90.1787 64.9243 87.4428 64.7138C87.3586 64.7138 87.2744 64.7138 87.1692 64.7138C87.1692 64.7138 87.085 64.7138 87.0429 64.7138C87.0429 64.798 87.064 64.8612 87.085 64.9453C87.4638 66.8605 87.8637 68.6283 88.2214 70.1225C88.3056 70.4592 88.3898 70.7959 88.4529 71.1326C88.8528 72.8162 89.1895 74.1 89.3368 74.8366C89.3368 74.8997 89.3368 74.9629 89.3579 75.0049C89.3579 75.1312 89.4 75.2365 89.4 75.3206C89.5263 77.4252 88.1162 79.1088 87.7374 79.5086C87.6743 79.5718 87.6532 79.6139 87.6532 79.6139L88.9159 79.9085L90.1576 80.1821C91.1678 79.1088 91.715 77.7619 91.9464 76.2256C97.1867 78.9614 101.859 78.3932 106.173 75.9099C106.636 79.4665 108.551 81.529 111.182 82.8759C111.413 86.6009 109.54 89.5472 106.889 92.2199L106.825 92.2831L106.657 92.9776L106.51 93.63H131.154C131.154 92.8302 131.154 92.3041 131.154 92.3041M91.715 73.3845C91.5887 73.3003 91.4624 73.2372 91.3361 73.153C90.0945 72.6479 89.1895 71.9955 88.7686 71.1116C88.6213 70.7959 88.5371 70.4802 88.5371 70.1014C88.5371 70.0593 88.5371 70.0172 88.5371 69.9751C91.0415 70.4171 92.9777 69.7857 94.4929 68.2494C94.4929 68.2494 94.514 68.2284 94.535 68.2074C94.4087 68.2074 94.3035 68.2284 94.1983 68.2494C92.9777 68.3336 92.0938 67.9338 91.6308 66.9657C91.1046 65.8503 91.1467 63.9352 91.9254 61.0099C93.2723 57.2849 93.3986 53.16 92.8514 48.7826C92.7883 48.3828 92.7462 47.9829 92.683 47.5831C92.683 47.562 92.683 47.5199 92.683 47.4989C92.5147 46.3414 92.2832 45.1839 92.0306 44.0054C92.0938 44.0054 92.1569 44.0264 92.199 44.0475C97.3551 45.1839 102.111 45.4154 106.194 44.0054C108.993 43.4161 110.803 45.3312 111.434 50.2768C112.15 54.549 111.96 58.5266 109.919 61.9148C111.203 62.1884 112.276 60.6311 112.865 55.1383C113.939 52.8864 114.991 52.8654 116.022 56.38C116.632 60.2733 115.749 63.5774 112.024 65.7661C107.246 74.6261 101.08 79.0667 91.757 73.3634" fill="#253061"/>
<path id="Vector_2" d="M56.6957 54.6125C56.8009 53.1603 56.9272 51.2663 57.0324 49.4774L56.6957 54.6125ZM61.3467 79.6983V79.6141V79.4668L59.2632 75.5735L59.8946 74.9842L60.0209 74.8579L62.5673 72.4588L60.3155 67.0502L56.843 57.8955L56.5484 57.1379L56.9903 58.6531L58.7792 64.8615V68.1024L60.3786 69.4704L60.1682 70.1017L60.1261 70.228C61.3046 70.691 53.7283 75.8471 52.15 75.2367V73.006H48.6775V75.0052C42.8901 74.1003 39.123 70.9646 37.2079 65.7875C37.2079 65.7875 29.6947 61.5363 34.5562 54.1915C34.5562 54.1915 37.271 55.9173 37.5867 62.6307C37.5867 62.6307 40.9118 66.4609 38.8704 60.5051C36.8291 54.5704 36.7238 40.5332 46.3415 44.0057C46.3415 44.0057 51.5817 52.4658 56.0012 48.3199L56.2327 48.5304L56.5274 48.7829L57.0956 49.3091C57.1587 48.1516 57.2218 47.0362 57.2429 46.1312C57.2429 46.1312 57.1377 46.1312 56.9483 46.1733C56.8641 46.1733 56.7589 46.1944 56.6326 46.2154C55.3278 46.3627 52.3815 46.51 51.9605 44.6791V44.5739L57.0745 44.4055H57.2429C57.2429 44.1951 57.2429 44.0478 57.2008 43.9636C57.2008 43.9215 57.2008 43.9004 57.1798 43.9004C57.0956 43.7742 57.285 43.2691 57.6638 42.5746C57.9163 42.1116 58.211 41.5644 58.5687 40.9962C59.7262 39.0811 61.1994 36.8503 61.473 36.4294C61.494 36.3873 61.5151 36.3663 61.5151 36.3663C61.4519 36.3242 61.4098 36.261 61.3467 36.2189C56.9062 32.2835 49.372 33.0622 49.3299 33.441C49.2878 33.8198 42.4692 35.8401 42.4692 35.8401C34.5772 36.9555 32.6411 43.8373 32.7252 52.6553C29.8631 59.8948 31.231 64.5879 35.9872 67.2606C36.8922 69.8281 38.7863 72.585 41.2275 75.4472C41.459 79.8877 33.7144 82.9182 24.0336 85.612C21.887 86.7064 20.3086 87.9901 19.2984 89.4212C18.5618 90.4735 18.1199 91.6099 17.9305 92.8305C17.8884 93.0831 17.8673 93.3567 17.8463 93.6302H45.2261C45.3313 90.7681 46.2363 86.0961 50.9293 85.5489C50.9293 85.5489 50.9293 85.5699 50.9504 85.591C51.0556 85.591 51.1398 85.5489 51.245 85.5489C53.097 89.0634 55.1384 91.8835 57.4954 93.2725L60.9258 93.1041C56.9903 90.726 53.6021 88.0954 52.4025 84.4545C55.3699 83.1918 58.4214 82.2237 61.5572 81.8028L61.3677 79.6983H61.3467ZM57.306 80.8558C56.8641 81.0242 56.359 81.2346 55.7908 81.4451C52.192 82.8972 46.6151 85.3595 44.3843 87.4219C43.8792 87.8849 43.5635 88.3269 43.4583 88.7267C43.4583 88.7267 43.4372 88.6846 43.3952 88.6004C42.9532 87.8007 40.4909 83.276 40.7645 81.3819C40.7645 81.3819 43.0163 78.604 43.0163 77.0887C45.3524 79.1722 47.7515 80.6664 50.2769 80.7295C53.5389 79.6983 55.8539 78.3093 57.4533 76.6468C57.769 77.9726 58.232 79.2143 59.0738 80.2034C59.0738 80.2034 58.4004 80.456 57.306 80.8769M50.5084 86.5591C47.7305 87.927 46.5098 90.4103 46.3836 93.6723H55.6855C55.6855 93.6723 55.896 93.6513 56.0012 93.6302C53.5389 91.6099 51.8132 89.2108 50.5295 86.5591M57.2218 44.5318V44.9948V46.1733C57.2218 45.7103 57.2218 45.3105 57.2218 44.9738C57.2218 44.8264 57.2218 44.6791 57.2218 44.5528" fill="#253061"/>
<path id="Vector_3" d="M56.2959 93.5878C56.2959 93.5878 56.1065 93.6089 56.0013 93.6299H46.3836C46.5099 90.3679 47.7305 87.8846 50.5085 86.5167C50.5926 86.4746 50.6768 86.4325 50.761 86.3904C52.0448 89.0842 53.7915 91.5465 56.2959 93.5878Z" fill="#249D64"/>
<path id="Vector_4" d="M56.2959 93.5878C56.2959 93.5878 56.1065 93.6089 56.0013 93.6299H46.3836C46.5099 90.3679 47.7305 87.8846 50.5085 86.5167C50.5926 86.4746 50.6768 86.4325 50.761 86.3904C52.0448 89.0842 53.7915 91.5465 56.2959 93.5878Z" fill="#249D64"/>
<path id="Vector_5" d="M106.973 92.9775C106.973 92.725 106.931 92.4514 106.889 92.1989C106.426 88.5791 104.763 85.6117 100.68 83.9702C97.2288 82.5602 93.2723 81.2133 88.8949 79.8874C88.5793 79.8032 88.2636 79.698 87.9479 79.6138C87.8637 79.5717 87.8006 79.5507 87.7374 79.5086C86.117 78.751 84.9174 77.8671 85.3172 76.4781C86.5379 76.3729 87.9058 75.8678 89.3579 75.0049C89.4421 74.9418 89.5473 74.8787 89.6315 74.8366C90.305 74.4367 90.9784 73.9527 91.6939 73.3844C91.715 73.3844 91.7571 73.3424 91.7781 73.3213C91.6308 73.2582 91.4835 73.2161 91.3151 73.1529C90.0735 72.6479 89.1685 71.9955 88.7476 71.1116C88.6003 70.8169 88.5161 70.4802 88.5161 70.1014C88.5161 70.0593 88.5161 70.0172 88.5161 69.9751C91.0205 70.4171 92.9566 69.7857 94.4719 68.2494C94.4719 68.2494 94.4929 68.2284 94.514 68.2073C94.6192 68.1021 94.7034 67.9969 94.8086 67.8916C93.5459 67.9127 92.5357 67.6602 91.9254 66.9446C91.2309 66.1239 91.0836 64.7138 91.6939 62.4199C93.3144 57.0323 93.609 52.6128 93.146 48.7616C93.104 48.3407 93.0408 47.9619 92.9777 47.562C92.9777 47.5409 92.9777 47.4989 92.9777 47.4778C92.7883 46.2782 92.5147 45.1207 92.178 44.0264C91.736 42.5111 91.1889 41.059 90.5785 39.649C90.5785 39.649 90.1787 38.8282 89.2737 37.6497C89.2527 37.6076 89.2106 37.5655 89.1685 37.5234C87.1271 34.9349 82.6866 30.8521 74.8157 30.4102C68.2075 30.789 64.0195 33.7143 61.6204 36.1765C61.5572 36.2397 61.4941 36.3239 61.4309 36.387C59.7684 38.1548 59.0528 39.628 59.0528 39.628C58.8634 40.0699 58.674 40.5118 58.5057 40.9538C58.2952 41.4799 58.1058 42.0061 57.9164 42.5322C57.7691 42.9952 57.6007 43.4582 57.4744 43.9212C57.4324 44.0685 57.3903 44.2158 57.3482 44.3631C57.3061 44.5315 57.264 44.6788 57.2219 44.8472C57.2219 44.8472 57.2219 44.8682 57.2219 44.8893C57.1167 45.2891 57.0115 45.689 56.9273 46.1099C56.9273 46.1099 56.9273 46.1309 56.9273 46.152C56.7589 46.8885 56.6326 47.6672 56.5274 48.4459C56.5274 48.5301 56.5274 48.6143 56.5064 48.6984C56.1696 51.4133 56.2328 54.4017 56.8431 57.811C56.8852 58.0635 56.9273 58.295 56.9904 58.5476C57.243 59.7682 57.5586 61.052 57.9585 62.3778C59.116 66.671 57.5586 67.8916 54.8438 67.8285C56.1907 69.3859 57.9374 70.1645 60.1472 70.0172C60.2524 70.0172 60.3576 70.0172 60.4629 69.9962C60.6733 69.9962 60.8838 69.933 61.1153 69.912C61.1153 71.4904 59.8526 72.5426 57.8533 73.2582C58.5898 73.8474 59.3264 74.3525 60.0209 74.7734C60.0841 74.8155 60.1472 74.8576 60.2103 74.8787C61.6835 75.7626 63.0514 76.2887 64.3141 76.3939C64.735 77.846 63.4302 78.751 61.7045 79.5296C61.5993 79.5507 61.5151 79.5928 61.4309 79.6138C60.1472 79.9926 58.9055 80.3925 57.7059 80.7713C57.0956 80.9607 56.4853 81.1712 55.875 81.3606C53.3917 82.1813 51.0767 83.0231 48.9722 83.886C46.9098 84.7278 45.4576 85.8853 44.4685 87.3164C44.216 87.6952 43.9845 88.095 43.7951 88.4949C43.0795 89.9891 42.7428 91.6938 42.6586 93.5457H45.605C45.7102 90.7467 46.5941 86.201 51.0136 85.5065C51.1188 85.5065 51.203 85.4644 51.3082 85.4644C53.1812 88.9789 55.2016 91.799 57.5586 93.188C57.5586 93.188 57.5586 93.188 57.5797 93.188L61.3047 92.9986C57.3692 90.6205 53.9809 87.9898 52.8024 84.349C55.7698 83.0863 58.8213 82.1182 61.9571 81.6763C61.9992 81.6763 62.0413 81.6763 62.0833 81.6763C65.2401 80.2873 67.4288 78.0354 68.0602 74.3315C70.0174 75.4048 72.1009 76.3308 74.8999 76.3729C77.6989 76.3308 79.7824 75.4048 81.7396 74.3315C82.3709 78.0144 84.5596 80.2873 87.7164 81.6763C90.9153 82.0972 93.9879 83.0863 96.9973 84.349C95.8188 87.9898 92.4095 90.6205 88.4951 92.9986L92.2201 93.188C94.5982 91.799 96.6185 88.9579 98.4915 85.4433C103.164 85.9905 104.069 90.6836 104.195 93.5247H107.141C107.141 93.2932 107.12 93.0828 107.099 92.8723M74.9209 73.9527C66.3976 74.584 62.5253 64.5665 62.5253 64.5665C59.579 65.0926 58.4004 60.0418 58.4004 60.0418C56.0855 53.6441 59.5369 50.7819 59.5369 50.7819C61.473 50.8661 62.1465 52.9916 62.5043 55.6854V49.0141C62.7357 47.2253 68.2917 46.8465 68.2917 46.8465C67.8497 43.5003 71.701 40.9117 71.701 40.9117C71.8904 42.8479 70.5225 45.7521 70.5225 45.7521H79.2773C79.2773 45.7521 77.9093 42.8479 78.0987 40.9117C78.0987 40.9117 81.95 43.5003 81.5081 46.8465C81.5081 46.8465 84.1177 47.0359 85.8223 47.7304C85.9276 47.7724 86.0328 47.8145 86.117 47.8566C86.7483 48.1513 87.2324 48.5511 87.2955 49.0352V55.7065C87.6322 53.16 88.2636 51.0976 89.9682 50.824C90.0524 50.824 90.1576 50.8029 90.2629 50.8029C90.2629 50.8029 93.7353 53.6651 91.3993 60.0628C91.3993 60.0628 90.2839 64.8191 87.548 64.6086C87.5059 64.6086 87.4849 64.6086 87.4428 64.6086C87.3797 64.6086 87.3376 64.6086 87.2744 64.6086C87.2744 64.6086 87.2744 64.6086 87.2744 64.6507C87.2744 64.6507 87.2324 64.7559 87.1903 64.8822C86.5168 66.4395 82.6235 74.584 74.9209 74.0158" fill="#249D64"/>
<path id="Vector_6" d="M56.2959 93.5878C56.2959 93.5878 56.1065 93.6089 56.0013 93.6299H46.3836C46.5099 90.3679 47.7305 87.8846 50.5085 86.5167C50.5926 86.4746 50.6768 86.4325 50.761 86.3904C52.0448 89.0842 53.7915 91.5465 56.2959 93.5878Z" fill="#249D64"/>
<path id="Vector_7" d="M103.248 93.6299H93.6301C93.6301 93.6299 93.4407 93.6089 93.3354 93.5878C95.8398 91.5465 97.5866 89.0842 98.8703 86.3904C101.838 87.7373 103.121 90.2627 103.248 93.6299Z" fill="#249D64"/>
<path id="Vector_8" d="M74.479 0C33.6302 0 0.399872 33.2304 0.399872 74.0791C0.399872 80.8556 1.30482 87.4007 3.00948 93.6301H10.7541C8.86004 87.4428 7.82882 80.8767 7.82882 74.0791C7.82882 37.3342 37.7341 7.42895 74.479 7.42895C111.224 7.42895 141.129 37.3342 141.129 74.0791C141.129 80.8767 140.098 87.4428 138.204 93.6301H145.948C147.653 87.4007 148.558 80.8346 148.558 74.0791C148.558 33.2304 115.328 0 74.479 0Z" fill="#249D64"/>
<path id="Vector_9" d="M20.6242 110.277C20.6242 110.277 20.6242 110.403 20.54 110.403H17.2149C17.2149 110.403 17.1097 110.361 17.1307 110.277L18.8143 104.532C18.8143 104.532 18.8354 104.469 18.8775 104.469C18.8985 104.469 18.9196 104.49 18.9406 104.532L20.6242 110.277Z" fill="#253061"/>
<path id="Vector_10" d="M80.7294 110.277L79.0458 104.532C79.0458 104.532 79.0037 104.448 78.9826 104.469C78.9405 104.469 78.9195 104.49 78.9195 104.532L77.2359 110.277C77.2359 110.277 77.2569 110.403 77.3411 110.403H80.6452C80.6452 110.403 80.7715 110.361 80.7294 110.277ZM80.7294 110.277L79.0458 104.532C79.0458 104.532 79.0037 104.448 78.9826 104.469C78.9405 104.469 78.9195 104.49 78.9195 104.532L77.2359 110.277C77.2359 110.277 77.2569 110.403 77.3411 110.403H80.6452C80.6452 110.403 80.7715 110.361 80.7294 110.277ZM80.7294 110.277L79.0458 104.532C79.0458 104.532 79.0037 104.448 78.9826 104.469C78.9405 104.469 78.9195 104.49 78.9195 104.532L77.2359 110.277C77.2359 110.277 77.2569 110.403 77.3411 110.403H80.6452C80.6452 110.403 80.7715 110.361 80.7294 110.277ZM112.066 104.532C112.066 104.532 112.066 104.448 112.003 104.469C111.981 104.469 111.96 104.49 111.939 104.532L110.277 110.277C110.277 110.277 110.277 110.403 110.361 110.403H113.686C113.686 110.403 113.791 110.361 113.77 110.277L112.066 104.532ZM112.066 104.532C112.066 104.532 112.066 104.448 112.003 104.469C111.981 104.469 111.96 104.49 111.939 104.532L110.277 110.277C110.277 110.277 110.277 110.403 110.361 110.403H113.686C113.686 110.403 113.791 110.361 113.77 110.277L112.066 104.532ZM80.7294 110.277L79.0458 104.532C79.0458 104.532 79.0037 104.448 78.9826 104.469C78.9405 104.469 78.9195 104.49 78.9195 104.532L77.2359 110.277C77.2359 110.277 77.2569 110.403 77.3411 110.403H80.6452C80.6452 110.403 80.7715 110.361 80.7294 110.277ZM149 94.8721H0L6.39774 107.752L0 120.631H149L142.602 107.752L149 94.8721ZM25.8435 115.538H22.4342C22.2658 115.538 22.1606 115.475 22.1185 115.328L21.5503 113.329C21.5503 113.329 21.4871 113.245 21.424 113.245H16.3521C16.3521 113.245 16.2679 113.287 16.2469 113.329L15.6576 115.328C15.6155 115.475 15.5103 115.538 15.363 115.538H11.9537C11.8484 115.538 11.7853 115.517 11.7432 115.475C11.7011 115.412 11.7011 115.328 11.7222 115.223L16.4784 100.175C16.5415 100.028 16.6257 99.965 16.773 99.965H20.9821C21.1294 99.965 21.2346 100.028 21.2767 100.175L26.075 115.223C26.075 115.223 26.096 115.307 26.096 115.349C26.096 115.475 26.0119 115.538 25.8435 115.538ZM38.8915 115.286C38.8915 115.286 38.8705 115.412 38.8073 115.475C38.7653 115.517 38.7021 115.538 38.6179 115.538H27.9901C27.9901 115.538 27.8428 115.517 27.8007 115.475C27.7376 115.412 27.7165 115.349 27.7165 115.286V100.218C27.7165 100.218 27.7376 100.091 27.8007 100.028C27.8428 99.986 27.9059 99.965 27.9901 99.965H31.1469C31.1469 99.965 31.2732 99.965 31.3363 100.028C31.3784 100.091 31.4205 100.154 31.4205 100.218V112.276C31.4205 112.276 31.4205 112.382 31.5257 112.382H38.6179C38.6179 112.382 38.7653 112.403 38.8073 112.466C38.8705 112.508 38.8915 112.571 38.8915 112.655V115.286ZM56.6116 105.037C56.6116 105.037 56.5905 105.163 56.5484 105.226C56.4853 105.268 56.4222 105.289 56.359 105.289H53.1812C53.1812 105.289 53.0549 105.268 52.9918 105.226C52.9497 105.163 52.9287 105.1 52.9287 105.037C52.9287 104.448 52.7182 103.964 52.3184 103.543C51.8975 103.143 51.3503 102.932 50.6558 102.932C49.9613 102.932 49.4141 103.164 49.0143 103.606C48.5934 104.048 48.3829 104.637 48.3829 105.353V110.13C48.3829 110.845 48.6144 111.435 49.0774 111.877C49.5404 112.319 50.1086 112.529 50.8031 112.529C51.4555 112.529 51.9816 112.361 52.3815 112.024C52.7813 111.666 52.9918 111.182 52.9918 110.551V109.94C52.9918 109.94 52.9497 109.814 52.8866 109.814H50.6558C50.6558 109.814 50.5085 109.793 50.4664 109.751C50.4032 109.688 50.3822 109.625 50.3822 109.562V107.099C50.3822 107.099 50.4032 106.973 50.4664 106.91C50.5085 106.868 50.5716 106.826 50.6558 106.826H56.359C56.359 106.826 56.4853 106.868 56.5484 106.91C56.5905 106.973 56.6116 107.036 56.6116 107.099V110.13C56.6116 111.245 56.3801 112.234 55.875 113.076C55.3699 113.918 54.6754 114.57 53.7705 115.033C52.8866 115.496 51.8343 115.728 50.6558 115.728C49.4773 115.728 48.425 115.496 47.5201 115.012C46.6151 114.528 45.9206 113.876 45.4366 113.013C44.9315 112.15 44.679 111.14 44.679 110.025V105.458C44.679 104.321 44.9315 103.332 45.4366 102.49C45.9206 101.628 46.6151 100.975 47.5201 100.491C48.425 100.007 49.4562 99.7756 50.6558 99.7756C51.8554 99.7756 52.8655 100.007 53.7705 100.449C54.6754 100.912 55.3699 101.522 55.875 102.322C56.3801 103.101 56.6116 103.964 56.6116 104.932V105.037ZM70.333 115.286C70.333 115.286 70.312 115.412 70.2699 115.475C70.2068 115.517 70.1436 115.538 70.0805 115.538H66.9027C66.9027 115.538 66.7764 115.517 66.7133 115.475C66.6712 115.412 66.6501 115.349 66.6501 115.286V109.351C66.6501 109.351 66.608 109.246 66.5239 109.246H62.3569C62.3569 109.246 62.2517 109.288 62.2517 109.351V115.286C62.2517 115.286 62.2306 115.412 62.1675 115.475C62.1254 115.517 62.0623 115.538 61.9781 115.538H58.8213C58.8213 115.538 58.6951 115.517 58.6319 115.475C58.5898 115.412 58.5477 115.349 58.5477 115.286V100.218C58.5477 100.218 58.5898 100.091 58.6319 100.028C58.6951 99.986 58.7582 99.965 58.8213 99.965H61.9781C61.9781 99.965 62.1254 99.965 62.1675 100.028C62.2306 100.091 62.2517 100.154 62.2517 100.218V105.963C62.2517 105.963 62.2938 106.089 62.3569 106.089H66.5239C66.5239 106.089 66.6501 106.047 66.6501 105.963V100.218C66.6501 100.218 66.6712 100.091 66.7133 100.028C66.7764 99.986 66.8395 99.965 66.9027 99.965H70.0805C70.0805 99.965 70.2068 99.965 70.2699 100.028C70.312 100.091 70.333 100.154 70.333 100.218V115.286ZM85.9486 115.538H82.5393C82.3709 115.538 82.2657 115.475 82.2236 115.328L81.6554 113.329C81.6554 113.329 81.5922 113.245 81.5501 113.245H76.4572C76.4572 113.245 76.373 113.287 76.352 113.329L75.7627 115.328C75.7206 115.475 75.6154 115.538 75.4681 115.538H72.0588C71.9535 115.538 71.8904 115.517 71.8483 115.475C71.8062 115.412 71.8062 115.328 71.8273 115.223L76.6045 100.175C76.6466 100.028 76.7308 99.965 76.8781 99.965H81.0871C81.2345 99.965 81.3397 100.028 81.3818 100.175L86.1801 115.223C86.1801 115.223 86.2011 115.307 86.2011 115.349C86.2011 115.475 86.1169 115.538 85.9486 115.538ZM102.048 115.538H98.8703C98.702 115.538 98.6178 115.454 98.5757 115.307L96.6395 106.699C96.6395 106.699 96.5975 106.615 96.5764 106.615C96.5343 106.615 96.5133 106.636 96.5133 106.699L94.7665 115.307C94.7455 115.454 94.6402 115.538 94.4719 115.538H91.5045C91.3362 115.538 91.2309 115.475 91.1888 115.328L87.0429 100.239V100.154C87.0219 100.028 87.1061 99.965 87.2744 99.965H90.6417C90.789 99.965 90.8942 100.028 90.9363 100.175L92.8725 108.278C92.8725 108.278 92.9145 108.383 92.9356 108.383C92.9777 108.383 92.9987 108.341 93.0198 108.278L94.7455 100.197C94.7665 100.028 94.8717 99.965 95.0401 99.965H98.1338C98.2811 99.965 98.3863 100.028 98.4284 100.175L100.365 108.278C100.365 108.278 100.386 108.383 100.428 108.383C100.449 108.383 100.47 108.341 100.491 108.278L102.301 100.197C102.322 100.028 102.427 99.965 102.595 99.965H105.878C106.089 99.965 106.173 100.049 106.131 100.239L102.364 115.328C102.322 115.475 102.217 115.538 102.048 115.538ZM118.968 115.538H115.58C115.412 115.538 115.307 115.475 115.265 115.328L114.675 113.329C114.675 113.329 114.612 113.245 114.57 113.245H109.498C109.498 113.245 109.414 113.287 109.372 113.329L108.804 115.328C108.762 115.475 108.656 115.538 108.488 115.538H105.079C105.079 115.538 104.931 115.517 104.889 115.475C104.826 115.412 104.826 115.328 104.847 115.223L109.624 100.175C109.667 100.028 109.772 99.965 109.919 99.965H114.128C114.275 99.965 114.36 100.028 114.402 100.175L119.2 115.223C119.2 115.223 119.221 115.307 119.221 115.349C119.221 115.475 119.137 115.538 118.968 115.538ZM132.038 115.286C132.038 115.286 131.995 115.412 131.953 115.475C131.89 115.517 131.827 115.538 131.764 115.538H121.115C121.115 115.538 120.968 115.517 120.926 115.475C120.884 115.412 120.842 115.349 120.842 115.286V100.218C120.842 100.218 120.884 100.091 120.926 100.028C120.968 99.986 121.031 99.965 121.115 99.965H124.272C124.272 99.965 124.419 99.965 124.461 100.028C124.524 100.091 124.545 100.154 124.545 100.218V112.276C124.545 112.276 124.588 112.382 124.651 112.382H131.764C131.764 112.382 131.89 112.403 131.953 112.466C131.995 112.508 132.038 112.571 132.038 112.655V115.286ZM137.299 115.286C137.299 115.286 137.278 115.412 137.236 115.475C137.173 115.517 137.109 115.538 137.046 115.538H133.868C133.868 115.538 133.742 115.517 133.679 115.475C133.637 115.412 133.616 115.349 133.616 115.286V100.218C133.616 100.218 133.616 100.091 133.679 100.028C133.742 99.986 133.805 99.965 133.868 99.965H137.046C137.046 99.965 137.173 99.965 137.236 100.028C137.278 100.091 137.299 100.154 137.299 100.218V115.286ZM112.003 104.469C112.003 104.469 111.96 104.49 111.939 104.532L110.277 110.277C110.277 110.277 110.277 110.403 110.361 110.403H113.686C113.686 110.403 113.791 110.361 113.77 110.277L112.066 104.532C112.066 104.532 112.066 104.448 112.003 104.469ZM79.0458 104.532C79.0458 104.532 79.0037 104.448 78.9826 104.469C78.9405 104.469 78.9195 104.49 78.9195 104.532L77.2359 110.277C77.2359 110.277 77.2569 110.403 77.3411 110.403H80.6452C80.6452 110.403 80.7715 110.361 80.7294 110.277L79.0458 104.532ZM80.7294 110.277L79.0458 104.532C79.0458 104.532 79.0037 104.448 78.9826 104.469C78.9405 104.469 78.9195 104.49 78.9195 104.532L77.2359 110.277C77.2359 110.277 77.2569 110.403 77.3411 110.403H80.6452C80.6452 110.403 80.7715 110.361 80.7294 110.277ZM112.066 104.532C112.066 104.532 112.066 104.448 112.003 104.469C111.981 104.469 111.96 104.49 111.939 104.532L110.277 110.277C110.277 110.277 110.277 110.403 110.361 110.403H113.686C113.686 110.403 113.791 110.361 113.77 110.277L112.066 104.532ZM112.066 104.532C112.066 104.532 112.066 104.448 112.003 104.469C111.981 104.469 111.96 104.49 111.939 104.532L110.277 110.277C110.277 110.277 110.277 110.403 110.361 110.403H113.686C113.686 110.403 113.791 110.361 113.77 110.277L112.066 104.532ZM80.7294 110.277L79.0458 104.532C79.0458 104.532 79.0037 104.448 78.9826 104.469C78.9405 104.469 78.9195 104.49 78.9195 104.532L77.2359 110.277C77.2359 110.277 77.2569 110.403 77.3411 110.403H80.6452C80.6452 110.403 80.7715 110.361 80.7294 110.277ZM80.7294 110.277L79.0458 104.532C79.0458 104.532 79.0037 104.448 78.9826 104.469C78.9405 104.469 78.9195 104.49 78.9195 104.532L77.2359 110.277C77.2359 110.277 77.2569 110.403 77.3411 110.403H80.6452C80.6452 110.403 80.7715 110.361 80.7294 110.277ZM80.7294 110.277L79.0458 104.532C79.0458 104.532 79.0037 104.448 78.9826 104.469C78.9405 104.469 78.9195 104.49 78.9195 104.532L77.2359 110.277C77.2359 110.277 77.2569 110.403 77.3411 110.403H80.6452C80.6452 110.403 80.7715 110.361 80.7294 110.277Z" fill="#253061"/>
<path id="Vector_11" d="M74.2475 10.7122C40.954 10.7122 13.8477 37.7973 13.8477 71.1119C13.8477 78.7723 15.2788 86.096 17.8884 92.8516C17.9937 93.1251 18.0989 93.3777 18.2041 93.6513H20.8348C20.2455 92.2833 19.7194 90.8733 19.2564 89.4422C17.3202 83.6758 16.289 77.5096 16.289 71.1119C16.289 39.1442 42.2798 13.1534 74.2475 13.1534C106.215 13.1534 132.206 39.1442 132.206 71.1119C132.206 77.3623 131.217 83.3812 129.365 89.0424C128.86 90.5997 128.27 92.136 127.639 93.6513H130.27C130.522 93.041 130.754 92.4307 130.985 91.8203C133.342 85.3595 134.626 78.3935 134.626 71.1329C134.626 37.8394 107.541 10.7332 74.2475 10.7332" fill="#253061"/>
<g id="Group">
<path id="Vector_12" d="M0.757599 134.268V123.283C0.757599 123.093 0.862825 123.009 1.03119 123.009H2.79898C2.9463 123.009 3.05153 123.051 3.13571 123.198L5.53486 127.071C5.53486 127.071 5.64008 127.134 5.66113 127.071L8.08133 123.198C8.16551 123.072 8.27073 123.009 8.41805 123.009H10.1858C10.3753 123.009 10.4594 123.114 10.4594 123.283V134.268C10.4594 134.458 10.3542 134.542 10.1858 134.542H8.41805C8.22864 134.542 8.14446 134.437 8.14446 134.268V127.113C8.14446 127.113 8.08133 126.987 8.01819 127.071L6.35562 129.786C6.27144 129.912 6.16621 129.975 6.0189 129.975H5.17709C5.02977 129.975 4.92455 129.933 4.84037 129.786L3.19884 127.071C3.19884 127.071 3.09362 127.008 3.09362 127.113V134.268C3.09362 134.458 2.98839 134.542 2.82003 134.542H1.03119C0.84178 134.542 0.757599 134.437 0.757599 134.268Z" fill="#249D64"/>
<path id="Vector_13" d="M19.5931 134.311L19.1301 132.774C19.1301 132.774 19.088 132.69 19.0248 132.69H14.9842C14.9842 132.69 14.9 132.69 14.8789 132.774L14.4159 134.311C14.3739 134.458 14.2686 134.542 14.1003 134.542H12.1852C11.9957 134.542 11.8905 134.416 11.9537 134.226L15.4682 123.22C15.5103 123.072 15.6155 122.988 15.7839 122.988H18.2041C18.3724 122.988 18.4777 123.072 18.5198 123.22L22.0343 134.226C22.0974 134.416 21.9922 134.542 21.8028 134.542H19.8877C19.7193 134.542 19.6141 134.458 19.572 134.311H19.5931ZM15.5524 130.901H18.4777C18.4777 130.901 18.5829 130.859 18.5618 130.796L17.0676 125.766C17.0676 125.766 16.9624 125.682 16.9414 125.766L15.4682 130.796C15.4682 130.796 15.4682 130.901 15.5524 130.901Z" fill="#249D64"/>
<path id="Vector_14" d="M23.5285 134.268V123.283C23.5285 123.093 23.6337 123.009 23.8021 123.009H25.5068C25.6541 123.009 25.7593 123.051 25.8435 123.198L29.9683 130.059C29.9683 130.059 30.0946 130.122 30.0946 130.017V123.283C30.0946 123.093 30.1998 123.009 30.3682 123.009H32.0939C32.2833 123.009 32.3675 123.114 32.3675 123.283V134.268C32.3675 134.458 32.2623 134.542 32.0939 134.542H30.4103C30.263 134.542 30.1577 134.479 30.0736 134.352L25.9277 127.429C25.9277 127.429 25.8014 127.365 25.8014 127.471V134.289C25.8014 134.479 25.7172 134.563 25.5488 134.563H23.8021C23.6127 134.563 23.5285 134.458 23.5285 134.289V134.268Z" fill="#249D64"/>
<path id="Vector_15" d="M42.7217 126.566C42.7217 128.67 41.2275 130.059 38.9757 130.059H36.6396C36.6396 130.059 36.5344 130.102 36.5344 130.165V134.269C36.5344 134.458 36.4292 134.542 36.2608 134.542H34.493C34.3036 134.542 34.2195 134.437 34.2195 134.269V123.262C34.2195 123.072 34.3247 122.988 34.493 122.988H39.0598C41.2485 122.988 42.7007 124.419 42.7007 126.566H42.7217ZM40.4067 126.608C40.4067 125.64 39.7333 124.988 38.7231 124.988H36.6396C36.6396 124.988 36.5344 125.03 36.5344 125.093V128.102C36.5344 128.102 36.5765 128.207 36.6396 128.207H38.7231C39.7333 128.207 40.4067 127.555 40.4067 126.629V126.608Z" fill="#249D64"/>
<path id="Vector_16" d="M43.9214 130.543V127.008C43.9214 124.524 45.6471 122.862 48.2567 122.862C50.8663 122.862 52.613 124.524 52.613 127.008V130.543C52.613 133.048 50.8873 134.731 48.2567 134.731C45.626 134.731 43.9214 133.048 43.9214 130.543ZM50.298 130.627V126.987C50.298 125.703 49.4983 124.861 48.2777 124.861C47.0571 124.861 46.2574 125.703 46.2574 126.987V130.627C46.2574 131.89 47.0571 132.732 48.2777 132.732C49.4983 132.732 50.298 131.89 50.298 130.627Z" fill="#249D64"/>
<path id="Vector_17" d="M56.1486 134.31L53.2443 123.325C53.2022 123.135 53.2864 123.009 53.4969 123.009H55.3699C55.5382 123.009 55.6435 123.093 55.6645 123.262L57.2219 129.849C57.2219 129.849 57.3481 129.933 57.3481 129.849L58.8423 123.262C58.8844 123.093 58.9686 123.009 59.137 123.009H61.01C61.1784 123.009 61.2836 123.093 61.3257 123.262L62.9462 129.849C62.9462 129.849 63.0514 129.933 63.0514 129.849L64.5456 123.262C64.5877 123.093 64.6719 123.009 64.8402 123.009H66.6291C66.8185 123.009 66.9027 123.135 66.8606 123.325L64.2089 134.31C64.1668 134.479 64.0616 134.563 63.8932 134.563H62.0833C61.9149 134.563 61.8097 134.479 61.7676 134.31L60.1261 127.302C60.1261 127.302 60.0209 127.197 59.9998 127.302L58.4635 134.31C58.4214 134.479 58.3373 134.563 58.1689 134.563H56.4853C56.3169 134.563 56.2117 134.458 56.1696 134.31H56.1486Z" fill="#249D64"/>
<path id="Vector_18" d="M75.8258 124.988H70.5014C70.5014 124.988 70.3961 125.03 70.3961 125.093V127.618C70.3961 127.618 70.4382 127.723 70.5014 127.723H73.9528C74.1422 127.723 74.2264 127.829 74.2264 127.997V129.428C74.2264 129.618 74.1211 129.702 73.9528 129.702H70.5014C70.5014 129.702 70.3961 129.744 70.3961 129.807V132.438C70.3961 132.438 70.4382 132.543 70.5014 132.543H75.8258C76.0152 132.543 76.0994 132.648 76.0994 132.816V134.247C76.0994 134.437 75.9941 134.521 75.8258 134.521H68.3758C68.1864 134.521 68.1022 134.416 68.1022 134.247V123.262C68.1022 123.072 68.2074 122.988 68.3758 122.988H75.8258C76.0152 122.988 76.0994 123.094 76.0994 123.262V124.693C76.0994 124.882 75.9941 124.967 75.8258 124.967V124.988Z" fill="#249D64"/>
<path id="Vector_19" d="M83.802 134.332L81.7816 129.849C81.7816 129.849 81.7185 129.765 81.6764 129.765H80.1822C80.1822 129.765 80.077 129.807 80.077 129.87V134.269C80.077 134.458 79.9717 134.542 79.8034 134.542H78.0356C77.8462 134.542 77.762 134.437 77.762 134.269V123.262C77.762 123.072 77.8672 122.988 78.0356 122.988H82.6655C84.7911 122.988 86.2011 124.398 86.2011 126.461C86.2011 127.955 85.4014 129.091 84.0966 129.533C84.0335 129.533 84.0124 129.618 84.0545 129.66L86.2432 134.205C86.3484 134.395 86.2432 134.542 86.0538 134.542H84.1808C84.0335 134.542 83.9072 134.458 83.8441 134.332H83.802ZM80.0559 125.093V127.871C80.0559 127.871 80.098 127.976 80.1611 127.976H82.3078C83.2337 127.976 83.8861 127.387 83.8861 126.503C83.8861 125.619 83.2337 125.009 82.3078 125.009H80.1611C80.1611 125.009 80.0559 125.051 80.0559 125.114V125.093Z" fill="#249D64"/>
<path id="Vector_20" d="M90.7679 131.238V130.964C90.7679 130.775 90.8731 130.69 91.0415 130.69H92.7672C92.9566 130.69 93.0408 130.775 93.0408 130.901V131.132C93.0408 131.974 93.8826 132.711 95.2295 132.711C96.4922 132.711 96.9552 132.079 96.9552 131.427C96.9552 130.585 96.1134 130.29 94.535 129.701C92.8093 129.112 90.831 128.333 90.831 126.145C90.831 124.124 92.4936 122.883 94.8506 122.883C97.3971 122.883 99.186 124.293 99.186 126.439V126.608C99.186 126.797 99.0807 126.881 98.9124 126.881H97.1867C96.9973 126.881 96.9131 126.818 96.9131 126.713V126.544C96.9131 125.682 96.1765 124.882 94.7875 124.882C93.7353 124.882 93.146 125.345 93.146 126.124C93.146 126.986 93.8826 127.281 95.7135 127.912C97.2077 128.46 99.2912 129.091 99.2912 131.343C99.2912 133.363 97.6497 134.689 95.0611 134.689C92.4725 134.689 90.7679 133.342 90.7679 131.238Z" fill="#249D64"/>
<path id="Vector_21" d="M100.827 130.712V123.262C100.827 123.072 100.933 122.988 101.101 122.988H102.869C103.058 122.988 103.142 123.094 103.142 123.262V130.733C103.142 131.89 103.921 132.69 105.1 132.69C106.278 132.69 107.057 131.89 107.057 130.733V123.262C107.057 123.072 107.162 122.988 107.33 122.988H109.098C109.288 122.988 109.372 123.094 109.372 123.262V130.712C109.372 133.09 107.646 134.668 105.1 134.668C102.553 134.668 100.827 133.09 100.827 130.712Z" fill="#249D64"/>
<path id="Vector_22" d="M119.705 126.566C119.705 128.67 118.211 130.059 115.959 130.059H113.623C113.623 130.059 113.518 130.102 113.518 130.165V134.269C113.518 134.458 113.413 134.542 113.244 134.542H111.476C111.287 134.542 111.203 134.437 111.203 134.269V123.262C111.203 123.072 111.308 122.988 111.476 122.988H116.043C118.232 122.988 119.684 124.419 119.684 126.566H119.705ZM117.39 126.608C117.39 125.64 116.717 124.988 115.706 124.988H113.623C113.623 124.988 113.518 125.03 113.518 125.093V128.102C113.518 128.102 113.56 128.207 113.623 128.207H115.706C116.717 128.207 117.39 127.555 117.39 126.629V126.608Z" fill="#249D64"/>
<path id="Vector_23" d="M129.554 126.566C129.554 128.67 128.06 130.059 125.808 130.059H123.472C123.472 130.059 123.367 130.102 123.367 130.165V134.269C123.367 134.458 123.262 134.542 123.093 134.542H121.326C121.136 134.542 121.052 134.437 121.052 134.269V123.262C121.052 123.072 121.157 122.988 121.326 122.988H125.892C128.081 122.988 129.533 124.419 129.533 126.566H129.554ZM127.239 126.608C127.239 125.64 126.566 124.988 125.556 124.988H123.472C123.472 124.988 123.367 125.03 123.367 125.093V128.102C123.367 128.102 123.409 128.207 123.472 128.207H125.556C126.566 128.207 127.239 127.555 127.239 126.629V126.608Z" fill="#249D64"/>
<path id="Vector_24" d="M130.985 134.268V123.283C130.985 123.093 131.09 123.009 131.259 123.009H133.027C133.216 123.009 133.3 123.114 133.3 123.283V132.458C133.3 132.458 133.342 132.564 133.405 132.564H138.709C138.898 132.564 138.982 132.669 138.982 132.837V134.268C138.982 134.458 138.877 134.542 138.709 134.542H131.259C131.069 134.542 130.985 134.437 130.985 134.268Z" fill="#249D64"/>
<path id="Vector_25" d="M142.497 134.247V130.165C142.497 130.165 142.497 130.059 142.455 130.038L139.13 123.325C139.025 123.136 139.13 122.988 139.319 122.988H141.234C141.382 122.988 141.508 123.072 141.571 123.199L143.591 127.492C143.591 127.492 143.697 127.555 143.718 127.492L145.738 123.199C145.801 123.072 145.927 122.988 146.075 122.988H148.011C148.221 122.988 148.327 123.136 148.221 123.325L144.854 130.038C144.854 130.038 144.812 130.144 144.812 130.165V134.247C144.812 134.437 144.707 134.521 144.538 134.521H142.792C142.602 134.521 142.518 134.416 142.518 134.247H142.497Z" fill="#249D64"/>
</g>
</g>
</svg>
