<svg width="31" height="29" viewBox="0 0 31 29" fill="none" xmlns="http://www.w3.org/2000/svg">
<path d="M12.3534 3.39886C12.3534 4.7065 13.2363 5.81327 14.4484 6.17562V14.3208C14.4484 22.1509 7.97872 28.5 0 28.5V14.6792C0 6.84914 6.46565 0.5 14.4484 0.5V0.622099C13.2363 0.984456 12.3534 2.09122 12.3534 3.39886Z" fill="#282828"/>
<path d="M30.5421 14.6792V28.5C22.5594 28.5 16.0938 22.1509 16.0938 14.3208V6.19138C17.3419 5.85265 18.257 4.73013 18.257 3.39886C18.257 2.06759 17.3419 0.94507 16.0938 0.606344V0.5C24.0725 0.5 30.5421 6.84914 30.5421 14.6792Z" fill="#E10008"/>
<path d="M15.2721 5.37525C16.4159 5.37525 17.343 4.46534 17.343 3.3429C17.343 2.22046 16.4159 1.31055 15.2721 1.31055C14.1284 1.31055 13.2012 2.22046 13.2012 3.3429C13.2012 4.46534 14.1284 5.37525 15.2721 5.37525Z" fill="#282828"/>
</svg>
