<svg width="43" height="50" viewBox="0 0 43 50" fill="none" xmlns="http://www.w3.org/2000/svg">
<g id="Frame 289">
<path id="&#226;&#128;&#156;" opacity="0.9" d="M8.85896 27.6328L8.85888 27.633L8.87015 27.6389C9.96907 28.2207 11.2729 28.5 12.7621 28.5C14.7795 28.5 16.5083 27.8655 17.9163 26.5856C19.3377 25.2934 20.0428 23.6084 20.0428 21.5762C20.0428 19.389 19.3824 17.6342 18.0046 16.3876C16.6515 15.1634 14.9505 14.5632 12.9405 14.5632C11.3118 14.5632 9.89941 15.0026 8.72708 15.8911C8.65618 15.2427 8.67745 14.5474 8.79502 13.8029L8.79572 13.7982C9.01769 12.2999 9.71365 10.806 10.917 9.31489C12.1777 7.82625 13.6295 6.74801 15.273 6.06796L15.7691 5.86264L15.529 5.38234L14.726 3.77639L14.5075 3.3393L14.0655 3.54778C10.8422 5.06819 8.41152 7.11994 6.80535 9.71452L6.80534 9.71451L6.80359 9.71739C5.26676 12.2378 4.5 15.0348 4.5 18.0967C4.5 19.2702 4.65436 20.5271 4.95853 21.8655L4.9585 21.8655L4.95969 21.8705C5.26751 23.1633 5.73296 24.289 6.3643 25.2378C7.00169 26.2555 7.83432 27.0565 8.85896 27.6328ZM26.1675 27.6328L26.1674 27.633L26.1787 27.6389C27.2776 28.2207 28.5814 28.5 30.0706 28.5C32.088 28.5 33.8169 27.8655 35.2248 26.5856C36.6462 25.2934 37.3513 23.6084 37.3513 21.5762C37.3513 19.389 36.691 17.6342 35.3132 16.3876C33.9601 15.1634 32.2591 14.5632 30.2491 14.5632C28.6204 14.5632 27.208 15.0026 26.0356 15.8911C25.9647 15.2427 25.986 14.5474 26.1036 13.8029L26.1043 13.7982C26.3262 12.2999 27.0222 10.806 28.2255 9.31488C29.4862 7.82625 30.9381 6.74801 32.5815 6.06796L33.0777 5.86264L32.8375 5.38234L32.0346 3.77639L31.816 3.3393L31.3741 3.54778C28.1508 5.06819 25.7201 7.11994 24.1139 9.71451L24.1121 9.71739C22.5753 12.2378 21.8085 15.0348 21.8085 18.0967C21.8085 19.2702 21.9629 20.5271 22.2671 21.8655L22.2671 21.8655L22.2682 21.8705C22.5761 23.1633 23.0415 24.289 23.6728 25.2378C24.3102 26.2554 25.1429 27.0564 26.1675 27.6328Z" stroke="#CDC8D3"/>
</g>
</svg>
