<svg width="37" height="39" viewBox="0 0 37 39" fill="none" xmlns="http://www.w3.org/2000/svg">
<g id="#07 Icon/Quote Large" opacity="0.5">
<path id="Vector" d="M16.4797 8.14224L15.4189 6.41455C8.07474 11.6408 3.99466 17.9901 3.99466 23.2163C3.99466 28.2698 7.50353 30.6454 10.482 30.6454C14.2357 30.6454 16.8877 27.2764 16.8877 23.7346C16.8877 20.7544 15.0925 18.206 12.6852 17.2558C11.9916 16.9967 11.3388 16.7807 11.3388 15.5281C11.3388 13.93 12.4404 11.5544 16.4797 8.14224ZM32.6776 8.14224L31.6168 6.41455C24.3542 11.6408 20.1926 17.9901 20.1926 23.2163C20.1926 28.2698 23.783 30.6454 26.7615 30.6454C30.556 30.6454 33.2488 27.2764 33.2488 23.7346C33.2488 20.7544 31.4128 18.206 28.9239 17.2558C28.2303 16.9967 27.6183 16.7807 27.6183 15.5281C27.6183 13.93 28.7607 11.5544 32.6776 8.14224Z" fill="black"/>
</g>
</svg>
