<svg width="16" height="16" viewBox="0 0 16 16" fill="none" xmlns="http://www.w3.org/2000/svg">
<g id="Star">
<g id="Iconly/Bold/Star">
<g id="Star_2">
<path id="Vector" d="M11.9456 9.54602C11.7729 9.71335 11.6936 9.95535 11.7329 10.1927L12.3256 13.4727C12.3756 13.7507 12.2583 14.032 12.0256 14.1927C11.7976 14.3594 11.4943 14.3793 11.2456 14.246L8.29292 12.706C8.19026 12.6513 8.07626 12.622 7.95959 12.6187H7.77892C7.71626 12.628 7.65493 12.648 7.59893 12.6787L4.64559 14.226C4.49959 14.2993 4.33426 14.3253 4.17226 14.2993C3.77759 14.2247 3.51426 13.8487 3.57893 13.452L4.17226 10.172C4.21159 9.93268 4.13226 9.68935 3.95959 9.51935L1.55226 7.18602C1.35093 6.99068 1.28093 6.69735 1.37293 6.43268C1.46226 6.16868 1.69026 5.97602 1.96559 5.93268L5.27892 5.45202C5.53093 5.42602 5.75226 5.27268 5.86559 5.04602L7.32559 2.05268C7.36026 1.98602 7.40493 1.92468 7.45893 1.87268L7.51892 1.82602C7.55026 1.79135 7.58626 1.76268 7.62626 1.73935L7.69893 1.71268L7.81226 1.66602H8.09293C8.34359 1.69202 8.56426 1.84202 8.67959 2.06602L10.1589 5.04602C10.2656 5.26402 10.4729 5.41535 10.7123 5.45202L14.0256 5.93268C14.3056 5.97268 14.5396 6.16602 14.6323 6.43268C14.7196 6.70002 14.6443 6.99335 14.4389 7.18602L11.9456 9.54602Z" fill="#E2CF1D"/>
</g>
</g>
</g>
</svg>
